<svg xmlns="http://www.w3.org/2000/svg" width="640" height="360" font-family="sans-serif">
<rect width="640" height="360" fill="white"/>
<text x="320.0" y="24" font-size="15" text-anchor="middle" fill="#111">Edit burden vs accumulated training pairs (held-out)</text>
<line x1="50" y1="310" x2="590" y2="310" stroke="#999"/>
<line x1="50" y1="50" x2="50" y2="310" stroke="#999"/>
<line x1="50" y1="83.9" x2="590" y2="83.9" stroke="#dc2626" stroke-dasharray="6 4"/>
<text x="590" y="77.9" font-size="11" text-anchor="end" fill="#dc2626">baseline 0.154</text>
<polyline points="50.0,198.6 140.0,257.1 230.0,198.6 320.0,198.6 410.0,253.5 500.0,310.0 590.0,257.1" fill="none" stroke="#2563eb" stroke-width="2"/>
<circle cx="50.0" cy="198.6" r="3.5" fill="#2563eb"/><circle cx="140.0" cy="257.1" r="3.5" fill="#2563eb"/><circle cx="230.0" cy="198.6" r="3.5" fill="#2563eb"/><circle cx="320.0" cy="198.6" r="3.5" fill="#2563eb"/><circle cx="410.0" cy="253.5" r="3.5" fill="#2563eb"/><circle cx="500.0" cy="310.0" r="3.5" fill="#2563eb"/><circle cx="590.0" cy="257.1" r="3.5" fill="#2563eb"/><text x="50.0" y="328.0" font-size="11" text-anchor="middle" fill="#555">1</text><text x="140.0" y="328.0" font-size="11" text-anchor="middle" fill="#555">2</text><text x="230.0" y="328.0" font-size="11" text-anchor="middle" fill="#555">3</text><text x="320.0" y="328.0" font-size="11" text-anchor="middle" fill="#555">4</text><text x="410.0" y="328.0" font-size="11" text-anchor="middle" fill="#555">5</text><text x="500.0" y="328.0" font-size="11" text-anchor="middle" fill="#555">6</text><text x="590.0" y="328.0" font-size="11" text-anchor="middle" fill="#555">7</text>
<text x="320.0" y="348" font-size="12" text-anchor="middle" fill="#555">training pairs</text>
<text x="16" y="180.0" font-size="12" text-anchor="middle" fill="#555" transform="rotate(-90 16 180.0)">mean edit burden</text>
</svg>